<svg width="100%" height="100%" viewBox="0 0 1280 1280" xmlns="http://www.w3.org/2000/svg">
  <rect width="100%" height="100%" fill="#202020" />
  <g fill-opacity="0.5">
    <path fill="#eee" d="M1067,640 Q1134,426 1280,426 Q1134,426 1067,213 Q853,213 853,426 Q853,213 640,213 Q640,426 853,426 Q640,426 640,640" />
    <path fill="#888" d="M213,640 Q213,853 426,853 Q213,853 213,1067 Q426,1067 426,853 Q426,1067 640,1067 Q426,1067 426,853 Q640,853 640,640" />
    <path fill="#444" d="M1067,1067 Q1067,853 1280,853 Q1067,853 1067,640 Q853,640 853,853 Q853,640 640,640 Q853,640 853,853 Q640,853 640,1067" />
  </g>
</svg>
